{
  "title": "Captain America The Winter Soldier 2014 HDTS NEWSOURCE x264 AC3-",
  "uid": 10431836,
  "size": 1383489198,
  "categoryP": "video",
  "categoryS": "movies",
  "magnet": "?xt=urn:btih:f6b929425e553fe42895e4df5d5c3637f1f4cffd&amp;dn=Captain+America+The+Winter+Soldier+2014+HDTS+NEWSOURCE+x264+AC3-&amp;tr=udp%3A%2F%2Ftracker.openbittorrent.com%3A80&amp;tr=udp%3A%2F%2Fopen.demonii.com%3A1337&amp;tr=udp%3A%2F%2Ftracker.coppersurfer.tk%3A6969&amp;tr=udp%3A%2F%2Fexodus.desync.com%3A6969",
  "seeders": 72,
  "leechers": 6,
  "uploader": "xxxlavalxxx",
  "files": -1,
  "time": 1403808683,
  "description": "[IMG]http://i.imgur.com/TjKeEfp.jpg[/IMG]\n &lt;a href=&quot;\nhttp://www.imdb.com/title/tt1843866/&quot; rel=&quot;nofollow&quot; target=&quot;_NEW&quot;&gt;\nhttp://www.imdb.com/title/tt1843866/&lt;/a&gt;\n\n\nSteve Rogers struggles to embrace his role in the modern world and battles a new threat from old history: the Soviet agent known as the Winter Soldier.\n\nDirectors: Anthony Russo, Joe Russo\nWriters: Christopher Markus (screenplay), Stephen McFeely (screenplay)\nStars: Chris Evans, Frank Grillo, Sebastian Stan\nGenres: Action | Adventure | Sci-Fi\nCountry: USA\nLanguage: English\n\n\nCaptain America The Winter Soldier 2014 HDTS NEWSOURCE x264 AC3-MiLLENiUM                  \n\nGeneral\n\nSource...............: 1080i HDTV MPEG2 DD2.0 [THANKS]\nIMDb Information.... : http://www.imdb.com/title/tt1843866/\nSample Included......: yes \n\nGeneral\nComplete name                            : Captain America The Winter Soldier 2014 HDTS NEWSOURCE x264 AC3-MiLLENiUM.mkv\nFormat                                   : Matroska\nFormat version                           : Version 2\nFile size                                : 1.26 GiB\nDuration                                 : 2h 15mn\nOverall bit rate mode                    : Variable\nOverall bit rate                         : 1 333 Kbps\nEncoded date                             : UTC 2014-06-26 14:14:19\nWriting application                      : mkvmerge v7.0.0 ('Where We Going') 32bit built on Jun  9 2014 15:08:34\nWriting library                          : libebml v1.3.0 + libmatroska v1.4.1\n\nVideo\nID                                       : 1\nFormat                                   : AVC\nFormat/Info                              : Advanced Video Codec\nFormat profile                           : &lt;a class=&quot;__cf_email__&quot; href=&quot;/cdn-cgi/l/email-protection&quot; data-cfemail=&quot;5f173638371f136b716e&quot;&gt;[email&amp;#160;protected]&lt;/a&gt;&lt;script cf-hash='f9e31' type=&quot;text/javascript&quot;&gt;\n/* &lt;![CDATA[ */!function(){try{var t=&quot;currentScript&quot;in document?document.currentScript:function(){for(var t=document.getElementsByTagName(&quot;script&quot;),e=t.length;e--;)if(t[e].getAttribute(&quot;cf-hash&quot;))return t[e]}();if(t&amp;&amp;t.previousSibling){var e,r,n,i,c=t.previousSibling,a=c.getAttribute(&quot;data-cfemail&quot;);if(a){for(e=&quot;&quot;,r=parseInt(a.substr(0,2),16),n=2;a.length-n;n+=2)i=parseInt(a.substr(n,2),16)^r,e+=String.fromCharCode(i);e=document.createTextNode(e),c.parentNode.replaceChild(e,c)}}}catch(u){}}();/* ]]&gt; */&lt;/script&gt;\nFormat settings, CABAC                   : Yes\nFormat settings, ReFrames                : 3 frames\nCodec ID                                 : V_MPEG4/ISO/AVC\nDuration                                 : 2h 15mn\nBit rate mode                            : Variable\nBit rate                                 : 1 083 Kbps\nMaximum bit rate                         : 40.0 Mbps\nWidth                                    : 720 pixels\nHeight                                   : 304 pixels\nDisplay aspect ratio                     : 2.35:1\nFrame rate mode                          : Constant\nFrame rate                               : 29.970 fps\nColor space                              : YUV\nChroma subsampling                       : 4:2:0\nBit depth                                : 8 bits\nScan type                                : Progressive\nBits/(Pixel*Frame)                       : 0.165\nStream size                              : 1.03 GiB (81%)\nWriting library                          : x264 core 142 r2431 ac76440\n\nAudio\nID                                       : 2\nFormat                                   : AC-3\nFormat/Info                              : Audio Coding 3\nMode extension                           : CM (complete main)\nFormat settings, Endianness              : Big\nCodec ID                                 : A_AC3\nDuration                                 : 2h 15mn\nBit rate mode                            : Constant\nBit rate                                 : 224 Kbps\nChannel(s)                               : 2 channels\nChannel positions                        : Front: L R\nSampling rate                            : 44.1 KHz\nBit depth                                : 16 bits\nCompression mode                         : Lossy\nStream size                              : 217 MiB (17%)\nLanguage                                 : English\nDefault                                  : Yes\nForced                                   : No\n\n\nscreens\n &lt;a href=&quot;\nhttp://i.imgur.com/BDfgV8J.jpg&quot; rel=&quot;nofollow&quot; target=&quot;_NEW&quot;&gt;\nhttp://i.imgur.com/BDfgV8J.jpg&lt;/a&gt; &lt;a href=&quot;\nhttp://i.imgur.com/vCRduyn.jpg&quot; rel=&quot;nofollow&quot; target=&quot;_NEW&quot;&gt;\nhttp://i.imgur.com/vCRduyn.jpg&lt;/a&gt; &lt;a href=&quot;\nhttp://i.imgur.com/J2uGzrb.jpg&quot; rel=&quot;nofollow&quot; target=&quot;_NEW&quot;&gt;\nhttp://i.imgur.com/J2uGzrb.jpg&lt;/a&gt; &lt;a href=&quot;\nhttp://i.imgur.com/92Q0GRD.jpg&quot; rel=&quot;nofollow&quot; target=&quot;_NEW&quot;&gt;\nhttp://i.imgur.com/92Q0GRD.jpg&lt;/a&gt; &lt;a href=&quot;\nhttp://i.imgur.com/TQDyjuo.jpg&quot; rel=&quot;nofollow&quot; target=&quot;_NEW&quot;&gt;\nhttp://i.imgur.com/TQDyjuo.jpg&lt;/a&gt; &lt;a href=&quot;\nhttp://i.imgur.com/jt1ir57.jpg&quot; rel=&quot;nofollow&quot; target=&quot;_NEW&quot;&gt;\nhttp://i.imgur.com/jt1ir57.jpg&lt;/a&gt; &lt;a href=&quot;\nhttp://i.imgur.com/hXXz8kQ.jpg&quot; rel=&quot;nofollow&quot; target=&quot;_NEW&quot;&gt;\nhttp://i.imgur.com/hXXz8kQ.jpg&lt;/a&gt; &lt;a href=&quot;\nhttp://i.imgur.com/V6XU2r1.jpg&quot; rel=&quot;nofollow&quot; target=&quot;_NEW&quot;&gt;\nhttp://i.imgur.com/V6XU2r1.jpg&lt;/a&gt; &lt;a href=&quot;\nhttp://i.imgur.com/JlUJfyY.jpg&quot; rel=&quot;nofollow&quot; target=&quot;_NEW&quot;&gt;\nhttp://i.imgur.com/JlUJfyY.jpg&lt;/a&gt;",
  "parsed": {
    "xt": "urn:btih:f6b929425e553fe42895e4df5d5c3637f1f4cffd",
    "dn": "Captain America The Winter Soldier 2014 HDTS NEWSOURCE x264 AC3-",
    "tr": [
      "udp://exodus.desync.com:6969",
      "udp://open.demonii.com:1337",
      "udp://tracker.coppersurfer.tk:6969",
      "udp://tracker.openbittorrent.com:80"
    ],
    "infoHash": "f6b929425e553fe42895e4df5d5c3637f1f4cffd",
    "infoHashBuffer": {
      "type": "Buffer",
      "data": [
        246,
        185,
        41,
        66,
        94,
        85,
        63,
        228,
        40,
        149,
        228,
        223,
        93,
        92,
        54,
        55,
        241,
        244,
        207,
        253
      ]
    },
    "name": "Captain America The Winter Soldier 2014 HDTS NEWSOURCE x264 AC3-",
    "announce": [
      "udp://exodus.desync.com:6969",
      "udp://open.demonii.com:1337",
      "udp://tracker.coppersurfer.tk:6969",
      "udp://tracker.openbittorrent.com:80"
    ],
    "urlList": []
  },
  "previous": 78,
  "peers": 1,
  "last_updated": "2016-12-25T18:20:37.139Z"
}